<mxfile host="app.diagrams.net" modified="2024-07-27T08:39:48.898Z" agent="Mozilla/5.0 (Windows NT 10.0; Win64; x64) AppleWebKit/537.36 (KHTML, like Gecko) Chrome/126.0.0.0 Safari/537.36" etag="Wbve5-gTLhVkedFq3et-" version="24.6.5" type="github">
  <diagram id="C5RBs43oDa-KdzZeNtuy" name="Page-1">
    <mxGraphModel dx="1050" dy="557" grid="1" gridSize="10" guides="1" tooltips="1" connect="1" arrows="1" fold="1" page="1" pageScale="1" pageWidth="827" pageHeight="1169" math="0" shadow="0">
      <root>
        <mxCell id="WIyWlLk6GJQsqaUBKTNV-0" />
        <mxCell id="WIyWlLk6GJQsqaUBKTNV-1" parent="WIyWlLk6GJQsqaUBKTNV-0" />
        <mxCell id="mmHLGZxrhIuS-yx8sOeM-2" style="edgeStyle=orthogonalEdgeStyle;rounded=0;orthogonalLoop=1;jettySize=auto;html=1;exitX=0.5;exitY=1;exitDx=0;exitDy=0;" edge="1" parent="WIyWlLk6GJQsqaUBKTNV-1" source="WIyWlLk6GJQsqaUBKTNV-3" target="mmHLGZxrhIuS-yx8sOeM-0">
          <mxGeometry relative="1" as="geometry" />
        </mxCell>
        <mxCell id="WIyWlLk6GJQsqaUBKTNV-3" value="start" style="rounded=1;whiteSpace=wrap;html=1;fontSize=12;glass=0;strokeWidth=1;shadow=0;" parent="WIyWlLk6GJQsqaUBKTNV-1" vertex="1">
          <mxGeometry x="160" y="80" width="120" height="40" as="geometry" />
        </mxCell>
        <mxCell id="mmHLGZxrhIuS-yx8sOeM-4" style="edgeStyle=orthogonalEdgeStyle;rounded=0;orthogonalLoop=1;jettySize=auto;html=1;exitX=0.5;exitY=1;exitDx=0;exitDy=0;entryX=0.5;entryY=0;entryDx=0;entryDy=0;" edge="1" parent="WIyWlLk6GJQsqaUBKTNV-1" source="mmHLGZxrhIuS-yx8sOeM-0" target="mmHLGZxrhIuS-yx8sOeM-3">
          <mxGeometry relative="1" as="geometry" />
        </mxCell>
        <mxCell id="mmHLGZxrhIuS-yx8sOeM-0" value="Img" style="shape=parallelogram;perimeter=parallelogramPerimeter;whiteSpace=wrap;html=1;fixedSize=1;" vertex="1" parent="WIyWlLk6GJQsqaUBKTNV-1">
          <mxGeometry x="160" y="170" width="120" height="60" as="geometry" />
        </mxCell>
        <mxCell id="mmHLGZxrhIuS-yx8sOeM-5" style="edgeStyle=orthogonalEdgeStyle;rounded=0;orthogonalLoop=1;jettySize=auto;html=1;exitX=0.5;exitY=1;exitDx=0;exitDy=0;" edge="1" parent="WIyWlLk6GJQsqaUBKTNV-1" source="mmHLGZxrhIuS-yx8sOeM-3">
          <mxGeometry relative="1" as="geometry">
            <mxPoint x="220" y="360" as="targetPoint" />
          </mxGeometry>
        </mxCell>
        <mxCell id="mmHLGZxrhIuS-yx8sOeM-3" value="&#xa;Grayscale&#xa;&#xa;" style="rounded=0;whiteSpace=wrap;html=1;" vertex="1" parent="WIyWlLk6GJQsqaUBKTNV-1">
          <mxGeometry x="160" y="280" width="120" height="40" as="geometry" />
        </mxCell>
        <mxCell id="mmHLGZxrhIuS-yx8sOeM-25" style="edgeStyle=orthogonalEdgeStyle;rounded=0;orthogonalLoop=1;jettySize=auto;html=1;exitX=0.5;exitY=1;exitDx=0;exitDy=0;entryX=0.5;entryY=0;entryDx=0;entryDy=0;" edge="1" parent="WIyWlLk6GJQsqaUBKTNV-1" source="mmHLGZxrhIuS-yx8sOeM-6" target="mmHLGZxrhIuS-yx8sOeM-11">
          <mxGeometry relative="1" as="geometry" />
        </mxCell>
        <mxCell id="mmHLGZxrhIuS-yx8sOeM-6" value="gray img" style="shape=dataStorage;whiteSpace=wrap;html=1;fixedSize=1;size=20;" vertex="1" parent="WIyWlLk6GJQsqaUBKTNV-1">
          <mxGeometry x="170" y="360" width="100" height="80" as="geometry" />
        </mxCell>
        <mxCell id="mmHLGZxrhIuS-yx8sOeM-13" style="edgeStyle=orthogonalEdgeStyle;rounded=0;orthogonalLoop=1;jettySize=auto;html=1;" edge="1" parent="WIyWlLk6GJQsqaUBKTNV-1" source="mmHLGZxrhIuS-yx8sOeM-11" target="mmHLGZxrhIuS-yx8sOeM-12">
          <mxGeometry relative="1" as="geometry" />
        </mxCell>
        <mxCell id="mmHLGZxrhIuS-yx8sOeM-11" value="blur" style="rounded=0;whiteSpace=wrap;html=1;" vertex="1" parent="WIyWlLk6GJQsqaUBKTNV-1">
          <mxGeometry x="175" y="480" width="90" height="60" as="geometry" />
        </mxCell>
        <mxCell id="mmHLGZxrhIuS-yx8sOeM-24" style="edgeStyle=orthogonalEdgeStyle;rounded=0;orthogonalLoop=1;jettySize=auto;html=1;entryX=0.5;entryY=0;entryDx=0;entryDy=0;" edge="1" parent="WIyWlLk6GJQsqaUBKTNV-1" source="mmHLGZxrhIuS-yx8sOeM-12" target="mmHLGZxrhIuS-yx8sOeM-15">
          <mxGeometry relative="1" as="geometry" />
        </mxCell>
        <mxCell id="mmHLGZxrhIuS-yx8sOeM-12" value="blur and gray img" style="shape=dataStorage;whiteSpace=wrap;html=1;fixedSize=1;" vertex="1" parent="WIyWlLk6GJQsqaUBKTNV-1">
          <mxGeometry x="160" y="600" width="120" height="90" as="geometry" />
        </mxCell>
        <mxCell id="mmHLGZxrhIuS-yx8sOeM-18" style="edgeStyle=orthogonalEdgeStyle;rounded=0;orthogonalLoop=1;jettySize=auto;html=1;entryX=0.5;entryY=0;entryDx=0;entryDy=0;" edge="1" parent="WIyWlLk6GJQsqaUBKTNV-1" source="mmHLGZxrhIuS-yx8sOeM-15" target="mmHLGZxrhIuS-yx8sOeM-17">
          <mxGeometry relative="1" as="geometry" />
        </mxCell>
        <mxCell id="mmHLGZxrhIuS-yx8sOeM-15" value="use canny to find edge" style="rounded=0;whiteSpace=wrap;html=1;" vertex="1" parent="WIyWlLk6GJQsqaUBKTNV-1">
          <mxGeometry x="160" y="730" width="120" height="60" as="geometry" />
        </mxCell>
        <mxCell id="mmHLGZxrhIuS-yx8sOeM-32" style="edgeStyle=orthogonalEdgeStyle;rounded=0;orthogonalLoop=1;jettySize=auto;html=1;" edge="1" parent="WIyWlLk6GJQsqaUBKTNV-1" source="mmHLGZxrhIuS-yx8sOeM-17">
          <mxGeometry relative="1" as="geometry">
            <mxPoint x="350" y="880" as="targetPoint" />
          </mxGeometry>
        </mxCell>
        <mxCell id="mmHLGZxrhIuS-yx8sOeM-17" value="canny img" style="shape=dataStorage;whiteSpace=wrap;html=1;fixedSize=1;" vertex="1" parent="WIyWlLk6GJQsqaUBKTNV-1">
          <mxGeometry x="170" y="840" width="100" height="80" as="geometry" />
        </mxCell>
        <mxCell id="mmHLGZxrhIuS-yx8sOeM-34" style="edgeStyle=orthogonalEdgeStyle;rounded=0;orthogonalLoop=1;jettySize=auto;html=1;" edge="1" parent="WIyWlLk6GJQsqaUBKTNV-1" source="mmHLGZxrhIuS-yx8sOeM-33">
          <mxGeometry relative="1" as="geometry">
            <mxPoint x="560" y="880" as="targetPoint" />
          </mxGeometry>
        </mxCell>
        <mxCell id="mmHLGZxrhIuS-yx8sOeM-33" value="create a mask in focus area" style="rounded=0;whiteSpace=wrap;html=1;" vertex="1" parent="WIyWlLk6GJQsqaUBKTNV-1">
          <mxGeometry x="350" y="850" width="120" height="60" as="geometry" />
        </mxCell>
        <mxCell id="mmHLGZxrhIuS-yx8sOeM-36" style="edgeStyle=orthogonalEdgeStyle;rounded=0;orthogonalLoop=1;jettySize=auto;html=1;" edge="1" parent="WIyWlLk6GJQsqaUBKTNV-1" source="mmHLGZxrhIuS-yx8sOeM-35">
          <mxGeometry relative="1" as="geometry">
            <mxPoint x="620" y="980" as="targetPoint" />
          </mxGeometry>
        </mxCell>
        <mxCell id="mmHLGZxrhIuS-yx8sOeM-35" value="&lt;span class=&quot;hljs-variable&quot;&gt;detect lines and draw&lt;/span&gt; &lt;span class=&quot;hljs-variable&quot;&gt;Lines&lt;/span&gt; &lt;span class=&quot;hljs-variable&quot;&gt;on&lt;/span&gt; &lt;span class=&quot;hljs-variable&quot;&gt;a&lt;/span&gt; &lt;span class=&quot;hljs-built_in&quot;&gt;Blank&lt;/span&gt; &lt;span class=&quot;hljs-built_in&quot;&gt;Image&lt;/span&gt;" style="rounded=0;whiteSpace=wrap;html=1;" vertex="1" parent="WIyWlLk6GJQsqaUBKTNV-1">
          <mxGeometry x="560" y="850" width="120" height="60" as="geometry" />
        </mxCell>
        <mxCell id="mmHLGZxrhIuS-yx8sOeM-39" style="edgeStyle=orthogonalEdgeStyle;rounded=0;orthogonalLoop=1;jettySize=auto;html=1;" edge="1" parent="WIyWlLk6GJQsqaUBKTNV-1" source="mmHLGZxrhIuS-yx8sOeM-37" target="mmHLGZxrhIuS-yx8sOeM-38">
          <mxGeometry relative="1" as="geometry" />
        </mxCell>
        <mxCell id="mmHLGZxrhIuS-yx8sOeM-37" value="&#xa;&lt;span class=&quot;hljs-variable&quot;&gt;Combine&lt;/span&gt; &lt;span class=&quot;hljs-variable&quot;&gt;Images&lt;/span&gt;&#xa;&#xa;" style="rounded=0;whiteSpace=wrap;html=1;" vertex="1" parent="WIyWlLk6GJQsqaUBKTNV-1">
          <mxGeometry x="560" y="980" width="120" height="60" as="geometry" />
        </mxCell>
        <mxCell id="mmHLGZxrhIuS-yx8sOeM-38" value="show img result&amp;nbsp;" style="ellipse;whiteSpace=wrap;html=1;" vertex="1" parent="WIyWlLk6GJQsqaUBKTNV-1">
          <mxGeometry x="320" y="970" width="120" height="80" as="geometry" />
        </mxCell>
      </root>
    </mxGraphModel>
  </diagram>
</mxfile>
